<?xml version="1.0" standalone="no"?>
<!DOCTYPE svg PUBLIC "-//W3C//DTD SVG 20010904//EN"
 "http://www.w3.org/TR/2001/REC-SVG-20010904/DTD/svg10.dtd">
<svg version="1.0" xmlns="http://www.w3.org/2000/svg"
 width="591.000000pt" height="591.000000pt" viewBox="0 0 591.000000 591.000000"
 preserveAspectRatio="xMidYMid meet">

<g transform="translate(0.000000,591.000000) scale(0.100000,-0.100000)"
fill="#000000" stroke="none">
<path d="M2859 5836 c-3 -3 -79 -12 -169 -21 -376 -36 -745 -142 -1074 -307
-385 -193 -749 -502 -1024 -870 -224 -299 -403 -682 -487 -1043 -44 -190 -90
-535 -89 -680 0 -134 39 -437 80 -625 158 -724 609 -1374 1244 -1792 138 -91
411 -232 555 -286 238 -91 538 -161 760 -179 44 -3 97 -12 119 -20 56 -19 310
-18 366 2 23 8 61 15 84 15 38 0 208 22 276 36 230 47 439 110 630 191 65 28
294 145 321 164 15 10 30 19 33 19 11 0 203 135 305 214 56 44 167 144 245
221 236 236 399 462 546 760 177 358 258 648 297 1069 15 162 15 209 5 359
-23 323 -64 538 -154 802 -17 50 -41 114 -54 143 -13 29 -24 55 -24 58 0 28
-157 319 -245 454 -138 212 -407 506 -605 662 -106 83 -303 217 -395 268 -146
81 -406 196 -520 230 -240 71 -443 113 -620 130 -66 6 -147 15 -181 21 -62 9
-217 13 -225 5z m346 -96 c688 -64 1296 -348 1780 -834 234 -235 400 -469 546
-771 281 -581 352 -1247 199 -1872 -55 -226 -136 -442 -239 -637 -224 -426
-488 -725 -916 -1034 -127 -93 -392 -233 -565 -300 -807 -314 -1706 -253
-2455 166 -412 230 -783 584 -1030 982 -111 180 -257 497 -295 645 -5 17 -20
71 -33 120 -118 424 -123 935 -15 1375 207 842 770 1529 1563 1904 428 203
982 300 1460 256z"/>
<path d="M3530 5486 c0 -14 -11 -56 -25 -94 -14 -38 -25 -72 -25 -75 0 -14 34
-37 56 -37 33 0 30 -22 -6 -49 -17 -12 -46 -46 -66 -76 -39 -58 -117 -275
-108 -299 7 -18 21 -24 83 -32 l48 -6 0 38 c0 87 104 330 160 374 35 27 103
27 128 -1 19 -20 18 -23 -25 -152 -25 -73 -46 -137 -48 -144 -5 -18 37 -40 88
-47 l45 -6 32 103 c55 172 46 225 -47 274 -34 18 -59 23 -122 23 -61 0 -80 3
-84 15 -4 8 7 52 22 96 l28 81 -23 19 c-15 12 -39 19 -67 19 -40 0 -44 -2 -44
-24z"/>
<path d="M2330 5462 c-138 -58 -178 -90 -197 -161 -11 -45 17 -128 73 -215 46
-71 58 -99 73 -171 9 -47 22 -90 29 -97 9 -9 25 -8 67 6 57 18 62 24 45 54
-16 29 -51 186 -43 193 5 4 29 10 55 14 49 7 46 9 96 -55 21 -26 72 -32 110
-11 l21 11 -25 48 c-14 26 -29 51 -33 55 -4 4 -62 -2 -130 -14 -117 -21 -122
-21 -141 -4 -21 19 -27 55 -10 55 6 0 43 15 83 34 93 45 127 92 127 177 0 109
-68 137 -200 81z m63 -29 c19 -23 22 -46 12 -108 -6 -41 -16 -58 -51 -92 -25
-24 -53 -43 -63 -43 -25 0 -41 41 -41 106 0 66 20 108 63 134 40 25 59 25 80
3z"/>
<path d="M1570 5241 c-63 -43 -169 -115 -235 -160 -66 -46 -139 -95 -162 -109
-23 -15 -44 -32 -47 -38 -2 -7 6 -28 20 -47 13 -20 24 -47 24 -61 0 -36 20
-33 60 9 35 36 42 73 26 135 -6 22 0 29 49 63 31 20 60 35 66 32 5 -3 65 -120
133 -260 77 -156 132 -258 145 -264 26 -15 61 0 126 54 82 68 101 78 124 66
28 -15 67 -14 101 4 33 17 38 30 15 38 -8 4 -23 24 -35 47 -11 22 -27 40 -36
40 -20 0 -74 -54 -74 -74 0 -19 -86 -86 -111 -86 -10 0 -25 10 -33 23 -22 36
-246 479 -246 488 0 9 96 79 109 79 5 0 25 -16 44 -35 38 -38 55 -41 108 -24
50 17 55 26 32 51 -11 13 -32 42 -47 66 -14 23 -30 42 -34 41 -4 0 -59 -35
-122 -78z"/>
<path d="M4415 5128 c-2 -7 -6 -29 -7 -48 l-3 -35 -63 -7 c-121 -13 -221 -61
-306 -145 -65 -64 -138 -169 -134 -192 3 -17 84 -69 109 -70 9 -1 19 9 23 22
11 45 90 150 145 193 58 45 163 88 203 82 59 -8 25 -103 -97 -278 -52 -74 -95
-143 -95 -152 0 -10 15 -27 33 -38 71 -44 194 -101 228 -106 30 -5 40 -2 67
25 39 40 50 89 27 124 -9 14 -41 38 -71 54 -29 15 -54 33 -54 39 0 6 8 22 19
35 63 81 88 177 92 350 l3 133 -29 12 c-39 17 -84 17 -90 2z m24 -592 c26 -28
23 -50 -16 -96 -29 -35 -51 -38 -84 -11 l-23 19 37 56 c20 31 43 56 50 56 8 0
24 -11 36 -24z"/>
<path d="M2680 4775 c-427 -60 -786 -234 -1083 -524 -339 -331 -525 -733 -567
-1226 -14 -172 15 -428 71 -620 187 -640 697 -1133 1345 -1299 390 -100 756
-79 1151 65 354 128 728 434 922 752 59 97 144 270 175 357 66 183 115 454
116 637 0 106 -25 302 -55 428 -174 739 -773 1293 -1535 1420 -136 23 -410 28
-540 10z m489 -60 c531 -76 991 -365 1284 -810 261 -395 351 -871 257 -1357
-60 -312 -229 -631 -462 -874 -294 -305 -625 -478 -1053 -551 -151 -25 -424
-23 -585 5 -720 126 -1296 658 -1468 1357 -42 169 -47 217 -47 435 1 221 9
289 55 465 163 624 669 1122 1310 1291 196 51 503 68 709 39z"/>
<path d="M2173 4272 c-50 -37 -142 -103 -205 -146 -436 -306 -510 -363 -470
-367 4 0 18 -2 32 -3 14 -2 137 -14 273 -27 136 -13 252 -26 258 -30 6 -4 6
-83 -2 -233 l-12 -227 24 -25 c47 -51 169 -95 329 -120 114 -17 432 -19 574
-4 98 11 259 52 283 71 8 8 12 57 12 172 1 89 3 172 5 184 3 12 -2 27 -10 34
-23 19 3 29 61 23 53 -5 79 -19 53 -29 -13 -5 -15 -31 -15 -163 0 -107 -4
-157 -12 -160 -19 -6 -12 -22 9 -22 26 0 112 43 131 66 10 12 15 55 19 153 l5
136 73 0 74 0 13 35 c34 94 34 94 54 76 24 -22 48 -20 61 4 9 17 7 26 -14 51
-29 35 -32 47 -12 63 7 6 32 55 55 109 47 109 106 223 129 249 15 18 9 54 -7
43 -6 -3 -50 -1 -98 4 -48 6 -169 17 -268 26 -99 9 -292 27 -430 40 -137 14
-353 34 -480 45 -213 18 -272 24 -365 35 -30 4 -47 -5 -127 -63z m1502 -492
c3 -6 -1 -7 -9 -4 -18 7 -21 14 -7 14 6 0 13 -4 16 -10z"/>
<path d="M3745 3608 c-14 -68 -26 -191 -31 -338 -7 -192 -5 -199 66 -201 25
-1 56 1 69 6 l24 7 -6 117 c-4 77 -18 168 -42 271 -19 85 -35 156 -35 158 0 1
-9 2 -20 2 -12 0 -21 -8 -25 -22z"/>
<path d="M3920 2768 c-26 -28 -23 -47 32 -248 21 -80 42 -165 44 -190 7 -63
-68 -409 -92 -427 -11 -8 -53 -13 -113 -14 -119 -2 -122 -1 -144 20 -15 14
-19 47 -26 221 -5 113 -9 293 -10 400 -1 107 -4 202 -6 210 -7 21 -43 42 -63
35 -10 -3 -26 -18 -35 -35 -17 -28 -18 -58 -12 -418 5 -385 6 -387 30 -437 17
-35 38 -58 69 -78 44 -28 47 -28 203 -28 l158 0 30 33 c27 29 36 57 78 243 27
116 48 228 49 250 1 47 -97 430 -118 463 -18 28 -47 28 -74 0z"/>
<path d="M2858 2750 c-124 -3 -230 -8 -233 -12 -11 -10 16 -939 27 -961 5 -9
19 -24 32 -32 29 -19 71 -4 83 29 4 12 6 87 4 169 -2 106 0 151 9 162 10 12
43 15 167 15 222 0 282 21 344 118 28 45 28 45 23 176 -6 176 -11 205 -39 248
-26 39 -103 82 -160 89 -16 2 -132 2 -257 -1z m283 -129 c23 -18 24 -26 27
-156 2 -76 1 -148 -2 -161 -12 -45 -40 -52 -218 -60 -158 -6 -167 -5 -176 13
-7 12 -10 89 -9 194 l2 174 165 5 c91 3 170 7 176 8 7 1 22 -7 35 -17z"/>
<path d="M1957 2693 c-46 -35 -47 -36 -153 -228 l-88 -160 0 -80 c0 -78 1 -82
54 -175 29 -52 64 -115 76 -139 49 -91 79 -129 123 -157 45 -28 49 -29 206
-32 l160 -3 29 30 30 31 -24 25 c-23 24 -27 25 -170 25 -111 0 -150 3 -166 15
-23 15 -72 94 -149 239 -67 125 -66 155 9 303 85 171 121 223 154 223 15 1 87
1 161 1 127 0 135 2 157 24 28 28 30 47 8 69 -13 13 -45 16 -198 16 l-182 0
-37 -27z"/>
<path d="M5161 4470 c-13 -11 -34 -20 -47 -20 -13 0 -24 -5 -24 -12 0 -18 51
-68 70 -68 16 0 60 -39 60 -53 0 -4 -11 -14 -25 -23 -25 -16 -28 -16 -82 12
-80 40 -139 39 -228 -5 -38 -19 -88 -52 -112 -74 -48 -44 -44 -45 -115 22 -34
31 -40 33 -63 23 -14 -7 -34 -12 -45 -12 -32 0 -33 -19 0 -51 29 -29 34 -31
84 -25 63 8 86 -7 86 -57 0 -18 11 -56 25 -85 28 -60 31 -94 12 -114 -26 -26
-37 -57 -30 -88 3 -17 11 -34 18 -36 14 -6 108 54 102 65 -26 48 -55 124 -60
156 -6 35 -3 46 22 76 35 42 106 93 119 85 5 -3 12 -24 16 -47 8 -48 60 -108
98 -111 12 0 28 -2 33 -3 6 -2 15 -3 22 -4 6 0 15 -10 18 -22 5 -15 -1 -29
-24 -53 -26 -27 -30 -37 -25 -64 4 -18 10 -35 15 -37 7 -5 99 51 99 60 0 3
-12 30 -27 61 -26 56 -26 58 -8 68 11 6 32 24 48 39 26 24 29 33 23 66 -5 34
-3 39 21 50 25 12 29 10 50 -15 20 -25 20 -30 7 -55 -12 -24 -12 -32 1 -63 9
-20 17 -36 19 -36 10 0 106 52 106 56 0 22 -40 66 -64 72 -32 9 -51 36 -112
160 -34 71 -35 74 -18 93 16 18 16 22 1 54 -19 40 -32 43 -66 15z m5 -241 c35
-39 -16 -77 -115 -86 -45 -4 -61 -2 -74 12 -35 34 -16 59 60 80 71 20 107 18
129 -6z"/>
<path d="M1330 4298 c-31 -51 -35 -77 -15 -113 16 -31 16 -34 0 -59 -10 -14
-23 -26 -30 -26 -7 0 -82 41 -167 91 -192 115 -222 129 -279 129 -37 0 -58 -7
-97 -33 l-49 -34 -57 34 c-76 44 -92 43 -116 -9 -11 -24 -20 -50 -20 -58 0 -9
23 -25 53 -38 86 -38 90 -42 93 -120 3 -82 29 -143 82 -194 70 -67 268 -188
307 -188 15 0 80 82 80 102 0 6 -18 16 -40 23 -53 16 -226 123 -293 181 -68
59 -99 119 -93 182 2 23 41 52 71 52 38 0 51 -6 278 -143 214 -128 203 -127
271 -12 43 74 49 79 83 76 20 -2 98 66 98 85 0 15 -6 18 -53 28 -18 4 -36 19
-49 41 -11 19 -24 35 -29 35 -5 0 -18 -15 -29 -32z"/>
<path d="M526 3259 c-29 -23 -34 -59 -11 -99 17 -30 19 -60 4 -60 -6 0 -29 16
-52 35 -51 44 -82 53 -116 34 -62 -35 -19 -91 78 -102 29 -4 56 -8 58 -11 12
-12 -11 -24 -65 -35 -98 -19 -130 -73 -63 -107 31 -16 54 -8 106 38 59 52 85
47 55 -11 -25 -51 -25 -86 0 -111 40 -40 110 -11 110 45 0 14 -9 44 -20 66
-30 58 -4 63 56 10 57 -50 90 -56 127 -24 39 36 2 76 -86 96 -34 7 -62 18 -64
24 -4 11 41 23 84 23 33 0 83 36 83 60 0 23 -36 50 -66 50 -11 0 -40 -15 -64
-32 -24 -18 -49 -37 -56 -43 -9 -6 -17 -6 -25 2 -9 9 -6 20 10 46 29 47 27 81
-5 106 -15 12 -32 21 -39 21 -7 0 -24 -9 -39 -21z"/>
<path d="M5222 3257 c-27 -29 -28 -57 -3 -106 15 -28 17 -41 9 -49 -8 -8 -23
0 -55 28 -54 47 -94 58 -128 36 -14 -9 -25 -25 -25 -36 0 -23 50 -60 83 -60
44 0 88 -12 84 -24 -2 -6 -28 -16 -58 -22 -73 -15 -84 -21 -99 -49 -14 -27 -5
-46 32 -66 22 -12 69 10 115 53 20 19 38 28 48 25 14 -6 13 -11 -5 -46 -11
-22 -20 -52 -20 -66 0 -30 32 -65 61 -65 60 0 84 56 50 121 -33 64 -9 80 44
30 64 -62 112 -70 142 -24 15 22 14 25 -7 48 -15 16 -43 29 -82 36 -54 11 -77
23 -65 35 3 3 30 8 61 11 92 10 136 68 75 102 -34 19 -71 9 -118 -34 -21 -19
-43 -35 -49 -35 -22 0 -23 21 -3 54 27 44 26 71 -4 101 -30 31 -55 32 -83 2z"/>
<path d="M685 2384 c-124 -32 -199 -84 -240 -169 -24 -49 -27 -64 -23 -124 9
-124 76 -208 190 -237 66 -18 77 -9 75 59 l-2 52 -41 5 c-54 8 -92 34 -110 75
-19 46 -18 69 6 115 41 80 236 139 319 96 81 -42 96 -161 27 -217 -20 -16 -20
-17 -2 -51 38 -71 41 -73 74 -48 76 57 101 168 61 275 -42 113 -117 167 -238
171 -42 2 -85 1 -96 -2z"/>
<path d="M4836 2343 c-9 -33 -59 -373 -55 -377 11 -9 553 -76 559 -69 15 15
68 387 57 401 -14 18 -76 15 -84 -4 -3 -9 -16 -76 -27 -148 l-22 -131 -64 3
c-36 2 -70 9 -77 15 -9 9 -7 39 8 130 11 66 18 125 16 132 -6 15 -61 25 -79
14 -7 -5 -22 -65 -33 -136 l-20 -128 -50 3 c-70 5 -77 14 -65 87 18 116 24
160 24 190 1 28 -2 30 -41 33 -33 2 -42 -1 -47 -15z"/>
<path d="M820 1748 c-140 -71 -256 -133 -258 -137 -4 -11 49 -103 57 -99 3 2
47 24 98 50 51 26 94 44 97 40 3 -5 21 -40 41 -78 65 -123 124 -164 218 -150
92 14 177 112 164 190 -6 39 -138 309 -152 311 -6 1 -125 -56 -265 -127z m270
-88 c45 -90 39 -124 -28 -160 -39 -20 -77 4 -117 72 -19 32 -35 65 -35 72 0
14 130 87 143 79 4 -2 21 -31 37 -63z"/>
<path d="M4729 1830 c-83 -44 -149 -154 -149 -248 0 -184 226 -338 408 -278
103 35 191 159 200 285 l5 69 -91 61 c-50 34 -95 61 -100 61 -10 0 -132 -174
-132 -188 0 -10 55 -52 68 -52 5 0 22 20 38 45 30 49 50 55 83 27 19 -14 21
-23 15 -58 -26 -166 -176 -206 -323 -86 -74 60 -89 125 -46 199 29 49 68 73
120 73 33 0 37 4 56 47 16 37 17 48 7 55 -24 15 -122 8 -159 -12z"/>
<path d="M1285 1413 c-259 -221 -267 -231 -269 -319 -1 -114 139 -264 246
-264 19 0 54 10 78 23 51 27 359 277 359 292 0 20 -68 87 -81 79 -6 -4 -81
-65 -166 -136 -85 -70 -165 -131 -179 -134 -88 -23 -178 119 -118 187 11 12
86 78 168 146 81 68 147 126 147 129 0 12 -64 84 -74 83 -6 0 -56 -39 -111
-86z"/>
<path d="M4280 1303 c-74 -69 -137 -130 -138 -135 -4 -8 356 -388 367 -388 3
0 71 62 150 138 l145 138 -24 32 c-13 18 -27 32 -31 32 -4 0 -55 -45 -113
-101 -58 -55 -109 -99 -114 -97 -14 6 -92 95 -91 104 0 5 40 45 89 89 48 44
88 88 89 97 1 9 -11 26 -26 38 l-27 21 -45 -43 c-25 -24 -70 -65 -98 -93 l-53
-49 -40 39 c-22 21 -40 44 -39 50 0 5 45 51 100 100 54 50 99 95 99 101 0 13
-42 54 -56 54 -5 0 -70 -57 -144 -127z"/>
<path d="M3793 1004 c-33 -14 -41 -31 -24 -49 4 -6 32 -66 61 -135 29 -69 73
-167 96 -217 l43 -92 43 18 c24 10 99 40 166 67 l124 48 -6 30 c-4 17 -11 35
-16 40 -11 11 -72 -8 -179 -56 -35 -16 -68 -25 -73 -20 -4 4 -43 91 -87 192
-85 199 -87 201 -148 174z"/>
<path d="M2025 991 c-54 -24 -130 -108 -163 -179 -31 -67 -41 -170 -22 -228
17 -49 83 -120 141 -149 71 -37 136 -42 195 -16 52 23 94 57 94 76 0 12 -61
75 -74 75 -4 0 -22 -11 -39 -24 -48 -36 -73 -40 -123 -21 -81 31 -108 95 -79
187 35 109 101 184 171 195 74 12 154 -54 154 -126 0 -34 14 -43 84 -56 l36
-7 0 59 c0 93 -54 164 -162 213 -56 25 -157 26 -213 1z"/>
<path d="M3273 873 c-24 -8 -43 -19 -43 -24 0 -5 29 -111 65 -236 36 -124 65
-232 65 -239 0 -7 5 -16 10 -19 12 -7 347 102 355 115 3 5 -1 26 -10 46 -11
28 -19 35 -32 29 -86 -33 -227 -75 -233 -68 -6 7 -86 282 -106 365 -9 41 -24
47 -71 31z"/>
<path d="M2727 866 c-128 -47 -207 -163 -207 -300 0 -77 23 -129 82 -183 75
-68 121 -88 208 -88 89 1 156 30 210 91 111 127 109 298 -5 403 -80 74 -206
108 -288 77z m160 -133 c43 -20 73 -66 73 -113 0 -49 -40 -129 -84 -168 -31
-27 -44 -32 -87 -32 -44 0 -55 4 -84 33 -59 59 -56 141 8 229 46 64 109 82
174 51z"/>
</g>
</svg>
